<svg width="24" height="24" viewBox="0 0 24 24" fill="none" xmlns="http://www.w3.org/2000/svg">
<path d="M5.22222 10.4445C5.81159 10.4445 6.37682 10.6669 6.79357 11.0628C7.21032 11.4587 7.44444 11.9957 7.44444 12.5556V14.6667H18.5556V12.5556C18.5556 11.9957 18.7897 11.4587 19.2064 11.0628C19.6232 10.6669 20.1884 10.4445 20.7778 10.4445C21.3671 10.4445 21.9324 10.6669 22.3491 11.0628C22.7659 11.4587 23 11.9957 23 12.5556V16.7778C23 17.3377 22.7659 17.8747 22.3491 18.2706C21.9324 18.6665 21.3671 18.8889 20.7778 18.8889H5.22222C4.63285 18.8889 4.06762 18.6665 3.65087 18.2706C3.23413 17.8747 3 17.3377 3 16.7778V12.5556C3 11.9957 3.23413 11.4587 3.65087 11.0628C4.06762 10.6669 4.63285 10.4445 5.22222 10.4445Z" stroke="#B39DDB" stroke-width="2" stroke-linecap="round" stroke-linejoin="round"/>
<path d="M5.22223 10.4444V5.16667C5.22223 4.32681 5.57342 3.52136 6.19854 2.9275C6.82366 2.33363 7.67151 2 8.55556 2H17.4445C18.3285 2 19.1764 2.33363 19.8015 2.9275C20.4266 3.52136 20.7778 4.32681 20.7778 5.16667V10.4444M6.33334 18.8889V21M19.6667 18.8889V21" stroke="#B39DDB" stroke-width="2" stroke-linecap="round" stroke-linejoin="round"/>
<path d="M4.22222 10.4445C4.81159 10.4445 5.37682 10.6669 5.79357 11.0628C6.21032 11.4587 6.44444 11.9957 6.44444 12.5556V14.6667H17.5556V12.5556C17.5556 11.9957 17.7897 11.4587 18.2064 11.0628C18.6232 10.6669 19.1884 10.4445 19.7778 10.4445C20.3671 10.4445 20.9324 10.6669 21.3491 11.0628C21.7659 11.4587 22 11.9957 22 12.5556V16.7778C22 17.3377 21.7659 17.8747 21.3491 18.2706C20.9324 18.6665 20.3671 18.8889 19.7778 18.8889H4.22222C3.63285 18.8889 3.06762 18.6665 2.65087 18.2706C2.23413 17.8747 2 17.3377 2 16.7778V12.5556C2 11.9957 2.23413 11.4587 2.65087 11.0628C3.06762 10.6669 3.63285 10.4445 4.22222 10.4445Z" stroke="#C708C7" stroke-width="2" stroke-linecap="round" stroke-linejoin="round"/>
<path d="M4.22223 10.4444V5.16667C4.22223 4.32681 4.57342 3.52136 5.19854 2.9275C5.82366 2.33363 6.67151 2 7.55556 2H16.4445C17.3285 2 18.1764 2.33363 18.8015 2.9275C19.4266 3.52136 19.7778 4.32681 19.7778 5.16667V10.4444M5.33334 18.8889V21M18.6667 18.8889V21" stroke="#C708C7" stroke-width="2" stroke-linecap="round" stroke-linejoin="round"/>
</svg>
