<svg width="33" height="18" viewBox="0 0 33 18" fill="none" xmlns="http://www.w3.org/2000/svg">
<g clip-path="url(#clip0_65_86)">
<path d="M18.5568 8.58643C18.9582 8.58643 19.3432 8.74088 19.627 9.01582C19.9109 9.29076 20.0703 9.66365 20.0703 10.0525V11.5185H27.638V10.0525C27.638 9.66365 27.7975 9.29076 28.0813 9.01582C28.3652 8.74088 28.7501 8.58643 29.1515 8.58643C29.553 8.58643 29.9379 8.74088 30.2218 9.01582C30.5056 9.29076 30.6651 9.66365 30.6651 10.0525V12.9846C30.6651 13.3734 30.5056 13.7463 30.2218 14.0212C29.9379 14.2962 29.553 14.4506 29.1515 14.4506H18.5568C18.1554 14.4506 17.7704 14.2962 17.4866 14.0212C17.2027 13.7463 17.0433 13.3734 17.0433 12.9846V10.0525C17.0433 9.66365 17.2027 9.29076 17.4866 9.01582C17.7704 8.74088 18.1554 8.58643 18.5568 8.58643Z" stroke="#B39DDB" stroke-width="2" stroke-linecap="round" stroke-linejoin="round"/>
<path d="M18.5568 8.58643V4.9213C18.5568 4.33807 18.796 3.77873 19.2218 3.36632C19.6475 2.95392 20.225 2.72223 20.8271 2.72223H26.8813C27.4834 2.72223 28.0608 2.95392 28.4866 3.36632C28.9124 3.77873 29.1516 4.33807 29.1516 4.9213V8.58643M19.3136 14.4506V15.9167M28.3948 14.4506V15.9167" stroke="#B39DDB" stroke-width="2" stroke-linecap="round" stroke-linejoin="round"/>
<path d="M17.8757 8.58643C18.2771 8.58643 18.6621 8.74088 18.9459 9.01582C19.2298 9.29076 19.3892 9.66365 19.3892 10.0525V11.5185H26.9569V10.0525C26.9569 9.66365 27.1164 9.29076 27.4002 9.01582C27.6841 8.74088 28.069 8.58643 28.4704 8.58643C28.8719 8.58643 29.2568 8.74088 29.5407 9.01582C29.8245 9.29076 29.984 9.66365 29.984 10.0525V12.9846C29.984 13.3734 29.8245 13.7463 29.5407 14.0212C29.2568 14.2962 28.8719 14.4506 28.4704 14.4506H17.8757C17.4743 14.4506 17.0893 14.2962 16.8055 14.0212C16.5216 13.7463 16.3622 13.3734 16.3622 12.9846V10.0525C16.3622 9.66365 16.5216 9.29076 16.8055 9.01582C17.0893 8.74088 17.4743 8.58643 17.8757 8.58643Z" stroke="#C708C7" stroke-width="2" stroke-linecap="round" stroke-linejoin="round"/>
<path d="M17.8757 8.58643V4.9213C17.8757 4.33807 18.1149 3.77873 18.5407 3.36632C18.9665 2.95392 19.5439 2.72223 20.146 2.72223H26.2002C26.8023 2.72223 27.3797 2.95392 27.8055 3.36632C28.2313 3.77873 28.4705 4.33807 28.4705 4.9213V8.58643M18.6325 14.4506V15.9167M27.7137 14.4506V15.9167" stroke="#C708C7" stroke-width="2" stroke-linecap="round" stroke-linejoin="round"/>
</g>
<path d="M13.3498 14.9881V3.0799C13.3498 2.95676 13.3165 2.83592 13.2533 2.73026C13.19 2.6246 13.0993 2.5381 12.9907 2.47998C12.8822 2.42186 12.7599 2.39431 12.6369 2.40027C12.5139 2.40623 12.3948 2.44547 12.2924 2.51381L11.2129 3.23374C11.0929 3.31368 10.9505 3.35339 10.8065 3.34713C10.6624 3.34086 10.524 3.28895 10.4114 3.1989L9.09987 2.14917C8.97927 2.05261 8.82938 2 8.67488 2C8.52039 2 8.3705 2.05261 8.24989 2.14917L6.93838 3.1989C6.82557 3.28902 6.687 3.34089 6.54274 3.347C6.39848 3.35312 6.25603 3.31315 6.136 3.23289L5.05652 2.51381C4.9541 2.4457 4.83513 2.40665 4.71227 2.40081C4.5894 2.39497 4.46726 2.42256 4.35884 2.48065C4.25042 2.53874 4.15979 2.62515 4.0966 2.73068C4.03341 2.83621 4.00002 2.9569 4 3.0799V14.9881C3.99992 15.1112 4.03328 15.2321 4.09651 15.3377C4.15975 15.4434 4.25048 15.5299 4.35904 15.588C4.4676 15.6461 4.5899 15.6737 4.71289 15.6677C4.83588 15.6618 4.95494 15.6225 5.05737 15.5542L6.13685 14.8351C6.25679 14.7551 6.39908 14.7152 6.54316 14.7213C6.68724 14.7274 6.82564 14.7792 6.93838 14.8691L8.24989 15.9188C8.3705 16.0154 8.52039 16.068 8.67488 16.068C8.82938 16.068 8.97927 16.0154 9.09987 15.9188L10.4114 14.8691C10.5242 14.779 10.6628 14.7271 10.807 14.721C10.9513 14.7149 11.0937 14.7549 11.2138 14.8351L12.2932 15.5542C12.3957 15.6223 12.5146 15.6614 12.6375 15.6672C12.7604 15.673 12.8825 15.6454 12.9909 15.5873C13.0993 15.5293 13.19 15.4428 13.2532 15.3373C13.3164 15.2318 13.3497 15.1111 13.3498 14.9881Z" fill="#D9D9D9" stroke="white"/>
<path d="M6.54993 6.90906H10.7998M6.54993 9.034H10.7998M8.67488 11.159H10.7998" stroke="black" stroke-linecap="round"/>
<defs>
<clipPath id="clip0_65_86">
<rect width="17" height="16" fill="white" transform="translate(15 2)"/>
</clipPath>
</defs>
</svg>
